<?xml version="1.0" encoding="UTF-8" standalone="no"?>
<!DOCTYPE svg PUBLIC "-//W3C//DTD SVG 1.1//EN" "http://www.w3.org/Graphics/SVG/1.1/DTD/svg11.dtd">
<!-- Generated by Microsoft Visio, SVG Export CiteuLikeNet.svg Page-1 -->
<svg xmlns="http://www.w3.org/2000/svg" xmlns:xlink="http://www.w3.org/1999/xlink" xmlns:ev="http://www.w3.org/2001/xml-events"
		xmlns:v="http://schemas.microsoft.com/visio/2003/SVGExtensions/" width="9.40521in" height="4.16475in"
		viewBox="0 0 677.175 299.862" xml:space="preserve" color-interpolation-filters="sRGB" class="st10">
	<v:documentProperties v:langID="1033" v:metric="true" v:viewMarkup="false">
		<v:userDefs>
			<v:ud v:nameU="msvNoAutoConnect" v:val="VT0(1):26"/>
		</v:userDefs>
	</v:documentProperties>

	<style type="text/css">
	<![CDATA[
		.st1 {fill:url(#grad0-4);stroke:#000000;stroke-linecap:round;stroke-linejoin:round;stroke-width:0.24}
		.st2 {fill:url(#grad0-8);stroke:#000000;stroke-linecap:round;stroke-linejoin:round;stroke-width:0.24}
		.st3 {fill:#000000;font-family:Calibri;font-size:0.833336em;font-weight:bold}
		.st4 {font-size:1em}
		.st5 {fill:#d7e3bf;stroke:#000000;stroke-linecap:round;stroke-linejoin:round;stroke-width:0.24}
		.st6 {fill:#000000;font-family:Calibri;font-size:0.833336em}
		.st7 {marker-end:url(#mrkr4-41);stroke:#000000;stroke-linecap:round;stroke-linejoin:round;stroke-width:0.75}
		.st8 {fill:#000000;fill-opacity:1;stroke:#000000;stroke-opacity:1;stroke-width:0.22935779816514}
		.st9 {stroke:#000000;stroke-dasharray:0,3.75;stroke-linecap:round;stroke-linejoin:round;stroke-width:0.75}
		.st10 {fill:none;fill-rule:evenodd;font-size:12px;overflow:visible;stroke-linecap:square;stroke-miterlimit:3}
	]]>
	</style>

	<defs id="Patterns_And_Gradients">
		<linearGradient id="grad0-4" x1="0" y1="0" x2="1" y2="0" gradientTransform="rotate(90 0.5 0.5)">
			<stop offset="0" stop-color="#f2f2f2" stop-opacity="1"/>
			<stop offset="1" stop-color="#d8d8d8" stop-opacity="1"/>
		</linearGradient>
		<linearGradient id="grad0-8" x1="0" y1="0" x2="1" y2="0" gradientTransform="rotate(90 0.5 0.5)">
			<stop offset="0" stop-color="#ffd965" stop-opacity="1"/>
			<stop offset="1" stop-color="#fff2cc" stop-opacity="1"/>
		</linearGradient>
	</defs>
	<defs id="Markers">
		<g id="lend4">
			<path d="M 2 1 L 0 0 L 2 -1 L 2 1 " style="stroke:none"/>
		</g>
		<marker id="mrkr4-41" class="st8" v:arrowType="4" v:arrowSize="2" v:setback="8.72" refX="-8.72" orient="auto"
				markerUnits="strokeWidth" overflow="visible">
			<use xlink:href="#lend4" transform="scale(-4.36,-4.36) "/>
		</marker>
	</defs>
	<g v:mID="0" v:index="1" v:groupContext="foregroundPage">
		<title>Page-1</title>
		<v:pageProperties v:drawingScale="0.0393701" v:pageScale="0.0393701" v:drawingUnits="24" v:shadowOffsetX="8.50394"
				v:shadowOffsetY="-8.50394"/>
		<v:layer v:name="Connector" v:index="0"/>
		<g id="shape63-1" v:mID="63" v:groupContext="shape" transform="translate(18.12,-18.12)">
			<title>Rectangle.63</title>
			<v:userDefs>
				<v:ud v:nameU="visVersion" v:val="VT0(15):26"/>
			</v:userDefs>
			<rect x="0" y="36.24" width="640.935" height="263.622" class="st1"/>
		</g>
		<g id="shape62-5" v:mID="62" v:groupContext="shape" transform="translate(565.937,-23.7893)">
			<title>Rectangle.62</title>
			<desc>Prediction</desc>
			<v:userDefs>
				<v:ud v:nameU="visVersion" v:val="VT0(15):26"/>
			</v:userDefs>
			<v:textBlock v:margins="rect(4,4,4,4)" v:tabSpace="42.5197" v:verticalAlign="0"/>
			<v:textRect cx="43.5118" cy="173.72" width="87.03" height="252.283"/>
			<rect x="0" y="47.5786" width="87.0236" height="252.283" class="st2"/>
			<text x="22.22" y="60.58" class="st3" v:langID="1030"><v:paragraph v:horizAlign="1"/><v:tabList/>Prediction</text>		</g>
		<g id="shape60-10" v:mID="60" v:groupContext="shape" transform="translate(255.118,-23.7893)">
			<title>Rectangle.60</title>
			<desc>Feed forward layer 1</desc>
			<v:userDefs>
				<v:ud v:nameU="visVersion" v:val="VT0(15):26"/>
			</v:userDefs>
			<v:textBlock v:margins="rect(4,4,4,4)" v:tabSpace="42.5197" v:verticalAlign="0"/>
			<v:textRect cx="43.5118" cy="215.379" width="87.03" height="168.967"/>
			<rect x="0" y="130.895" width="87.0236" height="168.967" class="st2"/>
			<text x="4.18" y="143.9" class="st3" v:langID="1030"><v:paragraph v:horizAlign="1"/><v:tabList/>Feed forward layer <tspan
						x="40.98" dy="1.2em" class="st4">1</tspan></text>		</g>
		<g id="shape59-15" v:mID="59" v:groupContext="shape" transform="translate(128.671,-23.7893)">
			<title>Rectangle.59</title>
			<desc>Embeddings</desc>
			<v:userDefs>
				<v:ud v:nameU="visVersion" v:val="VT0(15):26"/>
			</v:userDefs>
			<v:textBlock v:margins="rect(4,4,4,4)" v:tabSpace="42.5197" v:verticalAlign="0"/>
			<v:textRect cx="58.1102" cy="173.72" width="116.23" height="252.283"/>
			<rect x="0" y="47.5786" width="116.22" height="252.283" class="st2"/>
			<text x="32.76" y="60.58" class="st3" v:langID="1030"><v:paragraph v:horizAlign="1"/><v:tabList/>Embeddings</text>		</g>
		<g id="shape58-19" v:mID="58" v:groupContext="shape" transform="translate(25.2066,-23.7893)">
			<title>Rectangle.58</title>
			<desc>Inputs</desc>
			<v:userDefs>
				<v:ud v:nameU="visVersion" v:val="VT0(15):26"/>
			</v:userDefs>
			<v:textBlock v:margins="rect(4,4,4,4)" v:tabSpace="42.5197" v:verticalAlign="0"/>
			<v:textRect cx="43.5118" cy="173.72" width="87.03" height="252.283"/>
			<rect x="0" y="47.5786" width="87.0236" height="252.283" class="st2"/>
			<text x="30.4" y="60.58" class="st3" v:langID="1030"><v:paragraph v:horizAlign="1"/><v:tabList/>Inputs</text>		</g>
		<g id="shape1-23" v:mID="1" v:groupContext="shape" transform="translate(35.8365,-205.512)">
			<title>Ellipse</title>
			<desc>UserId’s</desc>
			<v:userDefs>
				<v:ud v:nameU="visVersion" v:val="VT0(15):26"/>
			</v:userDefs>
			<v:textBlock v:margins="rect(4,4,4,4)" v:tabSpace="42.5197"/>
			<v:textRect cx="31.8898" cy="278.602" width="55.81" height="37.2047"/>
			<path d="M0 278.6 A31.8898 21.2598 0 0 1 63.78 278.6 A31.8898 21.2598 0 1 1 0 278.6 Z" class="st5"/>
			<text x="15.41" y="281.6" class="st6" v:langID="1030"><v:paragraph v:horizAlign="1"/><v:tabList/>UserId’s</text>		</g>
		<g id="shape2-26" v:mID="2" v:groupContext="shape" transform="translate(35.8365,-72.2835)">
			<title>Ellipse.2</title>
			<desc>DocTitle</desc>
			<v:userDefs>
				<v:ud v:nameU="visVersion" v:val="VT0(15):26"/>
			</v:userDefs>
			<v:textBlock v:margins="rect(4,4,4,4)" v:tabSpace="42.5197"/>
			<v:textRect cx="31.8898" cy="278.602" width="55.81" height="37.2047"/>
			<path d="M0 278.6 A31.8898 21.2598 0 0 1 63.78 278.6 A31.8898 21.2598 0 0 1 0 278.6 Z" class="st5"/>
			<text x="15.17" y="281.6" class="st6" v:langID="1030"><v:paragraph v:horizAlign="1"/><v:tabList/>DocTitle</text>		</g>
		<g id="shape3-29" v:mID="3" v:groupContext="shape" transform="translate(136.608,-205.512)">
			<title>Rectangle</title>
			<desc>User embeddings</desc>
			<v:userDefs>
				<v:ud v:nameU="visVersion" v:val="VT0(15):26"/>
			</v:userDefs>
			<v:textBlock v:margins="rect(4,4,4,4)" v:tabSpace="42.5197"/>
			<v:textRect cx="50.5984" cy="278.602" width="101.2" height="42.5197"/>
			<rect x="0" y="257.342" width="101.197" height="42.5197" class="st5"/>
			<text x="15.14" y="281.6" class="st6" v:langID="1030"><v:paragraph v:horizAlign="1"/><v:tabList/>User embeddings</text>		</g>
		<g id="shape4-32" v:mID="4" v:groupContext="shape" transform="translate(136.608,-72.2835)">
			<title>Rectangle.4</title>
			<desc>Document Title embeddings</desc>
			<v:userDefs>
				<v:ud v:nameU="visVersion" v:val="VT0(15):26"/>
			</v:userDefs>
			<v:textBlock v:margins="rect(4,4,4,4)" v:tabSpace="42.5197"/>
			<v:textRect cx="50.5984" cy="278.602" width="101.2" height="42.5197"/>
			<rect x="0" y="257.342" width="101.197" height="42.5197" class="st5"/>
			<text x="19.34" y="275.6" class="st6" v:langID="1030"><v:paragraph v:horizAlign="1"/><v:tabList/>Document Title <tspan
						x="25.66" dy="1.2em" class="st4">embeddings</tspan></text>		</g>
		<g id="shape5-36" v:mID="5" v:groupContext="shape" v:layerMember="0" transform="translate(99.6161,-219.685)">
			<title>Dynamic connector</title>
			<path d="M0 292.78 L30.45 292.78" class="st7"/>
		</g>
		<g id="shape6-42" v:mID="6" v:groupContext="shape" v:layerMember="0" transform="translate(99.6161,-86.4567)">
			<title>Dynamic connector.6</title>
			<path d="M0 292.78 L30.45 292.78" class="st7"/>
		</g>
		<g id="shape7-47" v:mID="7" v:groupContext="shape" transform="translate(288.567,-132.821)">
			<title>Circle</title>
			<v:userDefs>
				<v:ud v:nameU="visVersion" v:val="VT0(15):26"/>
			</v:userDefs>
			<path d="M0 288.12 A11.7461 11.7461 0 0 1 23.49 288.12 A11.7461 11.7461 0 1 1 0 288.12 Z" class="st5"/>
		</g>
		<g id="shape8-49" v:mID="8" v:groupContext="shape" transform="translate(288.567,-98.3798)">
			<title>Circle.8</title>
			<v:userDefs>
				<v:ud v:nameU="visVersion" v:val="VT0(15):26"/>
			</v:userDefs>
			<path d="M0 288.12 A11.7461 11.7461 0 0 1 23.49 288.12 A11.7461 11.7461 0 1 1 0 288.12 Z" class="st5"/>
		</g>
		<g id="shape10-51" v:mID="10" v:groupContext="shape" transform="translate(288.567,-64.3622)">
			<title>Circle.10</title>
			<v:userDefs>
				<v:ud v:nameU="visVersion" v:val="VT0(15):26"/>
			</v:userDefs>
			<path d="M0 288.12 A11.7461 11.7461 0 0 1 23.49 288.12 A11.7461 11.7461 0 1 1 0 288.12 Z" class="st5"/>
		</g>
		<g id="shape11-53" v:mID="11" v:groupContext="shape" transform="translate(288.567,-29.742)">
			<title>Circle.11</title>
			<v:userDefs>
				<v:ud v:nameU="visVersion" v:val="VT0(15):26"/>
			</v:userDefs>
			<path d="M0 288.12 A11.7461 11.7461 0 0 1 23.49 288.12 A11.7461 11.7461 0 1 1 0 288.12 Z" class="st5"/>
		</g>
		<g id="shape17-55" v:mID="17" v:groupContext="shape" v:layerMember="0" transform="translate(293.226,-100.204)">
			<title>Dynamic connector.17</title>
			<path d="M7.09 301.69 L7.09 312.21" class="st9"/>
		</g>
		<g id="shape18-58" v:mID="18" v:groupContext="shape" v:layerMember="0" transform="translate(237.805,-93.5433)">
			<title>Dynamic connector.18</title>
			<path d="M0 299.86 L46.15 253.47" class="st7"/>
		</g>
		<g id="shape19-63" v:mID="19" v:groupContext="shape" v:layerMember="0" transform="translate(237.805,-93.5433)">
			<title>Dynamic connector.19</title>
			<path d="M0 299.86 L44.55 285.31" class="st7"/>
		</g>
		<g id="shape20-68" v:mID="20" v:groupContext="shape" v:layerMember="0" transform="translate(237.805,-93.5433)">
			<title>Dynamic connector.20</title>
			<path d="M0 299.86 L44.58 315.17" class="st7"/>
		</g>
		<g id="shape21-73" v:mID="21" v:groupContext="shape" v:layerMember="0" transform="translate(237.805,-93.5433)">
			<title>Dynamic connector.21</title>
			<path d="M0 299.86 L46.2 347.23" class="st7"/>
		</g>
		<g id="shape52-78" v:mID="52" v:groupContext="shape" transform="translate(570.472,-131.244)">
			<title>Rectangle.52</title>
			<desc>Binary classification</desc>
			<v:userDefs>
				<v:ud v:nameU="visVersion" v:val="VT0(15):26"/>
			</v:userDefs>
			<v:textBlock v:margins="rect(4,4,4,4)" v:tabSpace="42.5197"/>
			<v:textRect cx="39.9685" cy="283.705" width="79.94" height="32.315"/>
			<rect x="0" y="267.547" width="79.937" height="32.315" class="st5"/>
			<text x="27.07" y="280.7" class="st6" v:langID="1030"><v:paragraph v:horizAlign="1"/><v:tabList/>Binary <tspan
						x="13.98" dy="1.2em" class="st4">classification</tspan></text>		</g>
		<g id="shape64-82" v:mID="64" v:groupContext="shape" transform="translate(354.331,-24.0945)">
			<title>Rectangle.64</title>
			<desc>Concatenation</desc>
			<v:userDefs>
				<v:ud v:nameU="visVersion" v:val="VT0(15):26"/>
			</v:userDefs>
			<v:textBlock v:margins="rect(4,4,4,4)" v:tabSpace="42.5197" v:verticalAlign="0"/>
			<v:textRect cx="43.5118" cy="173.72" width="87.03" height="252.283"/>
			<rect x="0" y="47.5786" width="87.0236" height="252.283" class="st2"/>
			<text x="13.2" y="60.58" class="st3" v:langID="1030"><v:paragraph v:horizAlign="1"/><v:tabList/>Concatenation</text>		</g>
		<g id="shape65-86" v:mID="65" v:groupContext="shape" transform="translate(445.039,-24.0945)">
			<title>Rectangle.65</title>
			<desc>Feed forward layer 2</desc>
			<v:userDefs>
				<v:ud v:nameU="visVersion" v:val="VT0(15):26"/>
			</v:userDefs>
			<v:textBlock v:margins="rect(4,4,4,4)" v:tabSpace="42.5197" v:verticalAlign="0"/>
			<v:textRect cx="58.1102" cy="173.72" width="116.23" height="252.283"/>
			<rect x="0" y="47.5786" width="116.22" height="252.283" class="st2"/>
			<text x="15.11" y="60.58" class="st3" v:langID="1030"><v:paragraph v:horizAlign="1"/><v:tabList/>Feed forward layer 2</text>		</g>
		<g id="shape66-90" v:mID="66" v:groupContext="shape" transform="translate(361.417,-112.871)">
			<title>Rectangle.66</title>
			<desc>User embedding || Output from layer 1</desc>
			<v:userDefs>
				<v:ud v:nameU="visVersion" v:val="VT0(15):26"/>
			</v:userDefs>
			<v:textBlock v:margins="rect(4,4,4,4)" v:tabSpace="42.5197"/>
			<v:textRect cx="36.8504" cy="268.166" width="73.71" height="63.3917"/>
			<rect x="0" y="236.47" width="73.7008" height="63.3917" class="st5"/>
			<text x="27.46" y="247.17" class="st6" v:langID="1030"><v:paragraph v:horizAlign="1"/><v:tabList/>User <tspan x="13.87"
						dy="1.2em" class="st4">embedding <v:newlineChar/></tspan><tspan x="32.25" dy="1.2em" class="st4">||<v:newlineChar/></tspan><tspan
						x="11.28" dy="1.2em" class="st4">Output from </tspan><tspan x="23.15" dy="1.2em" class="st4">layer 1</tspan></text>		</g>
		<g id="shape67-97" v:mID="67" v:groupContext="shape" v:layerMember="0" transform="translate(312.059,-137.48)">
			<title>Dynamic connector.67</title>
			<path d="M0 292.78 L42.82 292.78" class="st7"/>
		</g>
		<g id="shape68-102" v:mID="68" v:groupContext="shape" v:layerMember="0" transform="translate(312.059,-110.126)">
			<title>Dynamic connector.68</title>
			<path d="M0 299.86 L43.99 269.16" class="st7"/>
		</g>
		<g id="shape69-107" v:mID="69" v:groupContext="shape" v:layerMember="0" transform="translate(312.059,-76.1083)">
			<title>Dynamic connector.69</title>
			<path d="M0 299.86 L45.53 236.71" class="st7"/>
		</g>
		<g id="shape70-112" v:mID="70" v:groupContext="shape" v:layerMember="0" transform="translate(312.059,-41.4881)">
			<title>Dynamic connector.70</title>
			<path d="M0 299.86 L46.53 202.68" class="st7"/>
		</g>
		<g id="shape71-117" v:mID="71" v:groupContext="shape" v:layerMember="0" transform="translate(237.805,-226.772)">
			<title>Dynamic connector.71</title>
			<path d="M0 299.86 L160.46 299.86 L160.46 343.83" class="st7"/>
		</g>
		<g id="shape72-122" v:mID="72" v:groupContext="shape" transform="translate(460.63,-209.764)">
			<title>Circle.72</title>
			<v:userDefs>
				<v:ud v:nameU="visVersion" v:val="VT0(15):26"/>
			</v:userDefs>
			<path d="M0 284.27 A15.5906 15.5906 0 0 1 31.18 284.27 A15.5906 15.5906 0 1 1 0 284.27 Z" class="st5"/>
		</g>
		<g id="shape73-124" v:mID="73" v:groupContext="shape" transform="translate(460.63,-163.813)">
			<title>Circle.73</title>
			<v:userDefs>
				<v:ud v:nameU="visVersion" v:val="VT0(15):26"/>
			</v:userDefs>
			<path d="M0 284.27 A15.5906 15.5906 0 0 1 31.18 284.27 A15.5906 15.5906 0 1 1 0 284.27 Z" class="st5"/>
		</g>
		<g id="shape74-126" v:mID="74" v:groupContext="shape" transform="translate(460.63,-99.511)">
			<title>Circle.74</title>
			<v:userDefs>
				<v:ud v:nameU="visVersion" v:val="VT0(15):26"/>
			</v:userDefs>
			<path d="M0 284.27 A15.5906 15.5906 0 0 1 31.18 284.27 A15.5906 15.5906 0 1 1 0 284.27 Z" class="st5"/>
		</g>
		<g id="shape75-128" v:mID="75" v:groupContext="shape" transform="translate(460.63,-53.5599)">
			<title>Circle.75</title>
			<v:userDefs>
				<v:ud v:nameU="visVersion" v:val="VT0(15):26"/>
			</v:userDefs>
			<path d="M0 284.27 A15.5906 15.5906 0 0 1 31.18 284.27 A15.5906 15.5906 0 1 1 0 284.27 Z" class="st5"/>
		</g>
		<g id="shape76-130" v:mID="76" v:groupContext="shape" transform="translate(517.323,-131.811)">
			<title>Circle.76</title>
			<v:userDefs>
				<v:ud v:nameU="visVersion" v:val="VT0(15):26"/>
			</v:userDefs>
			<path d="M0 284.27 A15.5906 15.5906 0 0 1 31.18 284.27 A15.5906 15.5906 0 1 1 0 284.27 Z" class="st5"/>
		</g>
		<g id="shape77-132" v:mID="77" v:groupContext="shape" v:layerMember="0" transform="translate(435.118,-144.567)">
			<title>Dynamic connector.77</title>
			<path d="M0 299.86 L23.54 225.31" class="st7"/>
		</g>
		<g id="shape78-137" v:mID="78" v:groupContext="shape" v:layerMember="0" transform="translate(435.118,-144.567)">
			<title>Dynamic connector.78</title>
			<path d="M0 299.86 L21.65 270.3" class="st7"/>
		</g>
		<g id="shape79-142" v:mID="79" v:groupContext="shape" v:layerMember="0" transform="translate(435.118,-144.567)">
			<title>Dynamic connector.79</title>
			<path d="M0 299.86 L21.23 324.38" class="st7"/>
		</g>
		<g id="shape80-147" v:mID="80" v:groupContext="shape" v:layerMember="0" transform="translate(435.118,-144.567)">
			<title>Dynamic connector.80</title>
			<path d="M0 299.86 L23.42 369.08" class="st7"/>
		</g>
		<g id="shape81-152" v:mID="81" v:groupContext="shape" v:layerMember="0" transform="translate(469.134,-163.813)">
			<title>Dynamic connector.81</title>
			<path d="M7.09 299.86 L7.09 332.98" class="st9"/>
		</g>
		<g id="shape82-155" v:mID="82" v:groupContext="shape" v:layerMember="0" transform="translate(491.811,-225.354)">
			<title>Dynamic connector.82</title>
			<path d="M0 299.86 L23.48 371.6" class="st7"/>
		</g>
		<g id="shape83-160" v:mID="83" v:groupContext="shape" v:layerMember="0" transform="translate(491.811,-179.403)">
			<title>Dynamic connector.83</title>
			<path d="M0 299.86 L21.44 326.75" class="st7"/>
		</g>
		<g id="shape84-165" v:mID="84" v:groupContext="shape" v:layerMember="0" transform="translate(491.811,-115.102)">
			<title>Dynamic connector.84</title>
			<path d="M0 299.86 L21.46 272.69" class="st7"/>
		</g>
		<g id="shape85-170" v:mID="85" v:groupContext="shape" v:layerMember="0" transform="translate(491.811,-69.1504)">
			<title>Dynamic connector.85</title>
			<path d="M0 299.86 L23.48 227.83" class="st7"/>
		</g>
		<g id="shape86-175" v:mID="86" v:groupContext="shape" v:layerMember="0" transform="translate(548.504,-140.315)">
			<title>Dynamic connector.86</title>
			<path d="M0 292.78 L15.43 292.78" class="st7"/>
		</g>
	</g>
</svg>
